<svg width="20" height="20" viewBox="0 0 20 20" fill="none" xmlns="http://www.w3.org/2000/svg">
<path d="M18.3333 6.8915V3.52484C18.3333 2.19984 17.8 1.6665 16.475 1.6665H13.1083C11.7833 1.6665 11.25 2.19984 11.25 3.52484V6.8915C11.25 8.2165 11.7833 8.74984 13.1083 8.74984H16.475C17.8 8.74984 18.3333 8.2165 18.3333 6.8915Z" stroke="white" stroke-width="1.5" stroke-linecap="round" stroke-linejoin="round"/>
<path d="M8.74984 7.09984V3.3165C8.74984 2.1415 8.2165 1.6665 6.8915 1.6665H3.52484C2.19984 1.6665 1.6665 2.1415 1.6665 3.3165V7.0915C1.6665 8.27484 2.19984 8.7415 3.52484 8.7415H6.8915C8.2165 8.74984 8.74984 8.27484 8.74984 7.09984Z" stroke="white" stroke-width="1.5" stroke-linecap="round" stroke-linejoin="round"/>
<path d="M8.74984 16.475V13.1083C8.74984 11.7833 8.2165 11.25 6.8915 11.25H3.52484C2.19984 11.25 1.6665 11.7833 1.6665 13.1083V16.475C1.6665 17.8 2.19984 18.3333 3.52484 18.3333H6.8915C8.2165 18.3333 8.74984 17.8 8.74984 16.475Z" stroke="white" stroke-width="1.5" stroke-linecap="round" stroke-linejoin="round"/>
<path d="M12.0835 14.5835H17.0835" stroke="white" stroke-width="1.5" stroke-linecap="round"/>
<path d="M14.5835 17.0835V12.0835" stroke="white" stroke-width="1.5" stroke-linecap="round"/>
</svg>
