<svg width="16" height="16" viewBox="0 0 16 16" fill="none" xmlns="http://www.w3.org/2000/svg">
<path d="M4.60008 6.06675L7.78005 4.65341C7.92005 4.59341 8.08007 4.59341 8.2134 4.65341L11.3934 6.06675C11.6734 6.19341 11.9334 5.85341 11.7401 5.61341L8.40672 1.54008C8.18005 1.26008 7.80673 1.26008 7.58006 1.54008L4.24673 5.61341C4.06006 5.85341 4.32008 6.19341 4.60008 6.06675Z" fill="#15161E"/>
<path d="M4.60004 9.93317L7.78669 11.3465C7.92669 11.4065 8.08671 11.4065 8.22004 11.3465L11.4067 9.93317C11.6867 9.80651 11.9467 10.1465 11.7534 10.3865L8.42003 14.4598C8.19337 14.7398 7.82004 14.7398 7.59337 14.4598L4.26004 10.3865C4.06004 10.1465 4.31338 9.80651 4.60004 9.93317Z" fill="#15161E"/>
<path d="M7.85338 6.3265L5.10004 7.69984C4.85337 7.81984 4.85337 8.17317 5.10004 8.29317L7.85338 9.6665C7.94671 9.71317 8.06001 9.71317 8.15334 9.6665L10.9067 8.29317C11.1533 8.17317 11.1533 7.81984 10.9067 7.69984L8.15334 6.3265C8.05334 6.27984 7.94671 6.27984 7.85338 6.3265Z" fill="#15161E"/>
</svg>
